<svg xmlns="http://www.w3.org/2000/svg" width="18.213" height="17.026" viewBox="0 0 18.213 17.026">
  <g id="Group_1081" data-name="Group 1081" transform="translate(-326.446 -508.277)">
    <path id="Path_1906" data-name="Path 1906" d="M347.252,517.336H332.917l1.557,6.236H345.8a1.3,1.3,0,0,0,1.249-1.039l.858-4.634S348,517.336,347.252,517.336Z" transform="translate(-3.252 -4.552)" fill="#fff"/>
    <g id="Group_1079" data-name="Group 1079" transform="translate(326.446 508.277)">
      <g id="Group_1077" data-name="Group 1077" transform="translate(4.331 13.295)">
        <circle id="Ellipse_114" data-name="Ellipse 114" cx="1.866" cy="1.866" r="1.866" fill="#fff"/>
        <circle id="Ellipse_115" data-name="Ellipse 115" cx="1.866" cy="1.866" r="1.866" transform="translate(9.029)" fill="#fff"/>
      </g>
      <g id="Group_1078" data-name="Group 1078">
        <path id="Path_1907" data-name="Path 1907" d="M330.753,520.5a.378.378,0,0,0,.378.378h1.537l-.408,2.316a.373.373,0,0,0,.735.129l.431-2.446H341.7l-.408,2.316a.373.373,0,0,0,.735.129l.431-2.446h.739a.378.378,0,0,0,0-.756H331.806L328.824,509a.374.374,0,0,0-.144-.718H326.82a.374.374,0,1,0,0,.747h1.23l2.979,11.117A.377.377,0,0,0,330.753,520.5Z" transform="translate(-326.446 -508.277)" fill="#fff"/>
      </g>
    </g>
  </g>
</svg>
