<svg xmlns="http://www.w3.org/2000/svg" width="16.053" height="14.899" viewBox="0 0 16.053 14.899">
  <g id="Group_2842" data-name="Group 2842" transform="translate(-432.662 -150.27)">
    <path id="Path_2419" data-name="Path 2419" d="M925.637,165.169H916.7a1.462,1.462,0,0,1-1.464-1.464v-5.694a.4.4,0,1,1,.793,0v5.694a.672.672,0,0,0,.671.671h8.936a.672.672,0,0,0,.671-.671v-9.739l-2.72-2.9H916.7a.672.672,0,0,0-.671.671v2.345a.4.4,0,1,1-.793,0v-2.345a1.463,1.463,0,0,1,1.464-1.464h7.058a.4.4,0,0,1,.289.125l2.945,3.143a.4.4,0,0,1,.107.271v9.9a1.463,1.463,0,0,1-1.464,1.464Z" transform="translate(-478.386 0)"/>
    <g id="Group_2760" data-name="Group 2760" transform="translate(438.844 159.295)">
      <path id="Path_2420" data-name="Path 2420" d="M1152.122,1190.343h-7.13a.373.373,0,0,1,0-.746h7.13a.373.373,0,1,1,0,.746Z" transform="translate(-1144.62 -1189.597)"/>
      <path id="Path_2421" data-name="Path 2421" d="M1152.122,1373.042h-7.13a.373.373,0,0,1,0-.746h7.13a.373.373,0,1,1,0,.746Z" transform="translate(-1144.62 -1370.71)"/>
      <path id="Path_2422" data-name="Path 2422" d="M1152.122,1555.742h-7.13a.373.373,0,0,1,0-.746h7.13a.373.373,0,1,1,0,.746Z" transform="translate(-1144.62 -1551.823)"/>
    </g>
    <g id="Group_2761" data-name="Group 2761" transform="translate(432.662 153.677)">
      <path id="Path_2423" data-name="Path 2423" d="M769.1,746.229h-.351v.891h.3a.778.778,0,0,0,.5-.124.4.4,0,0,0,.144-.317.444.444,0,0,0-.125-.319A.65.65,0,0,0,769.1,746.229Z" transform="translate(-765.826 -744.461)" fill="red"/>
      <path id="Path_2424" data-name="Path 2424" d="M1234.876,756.895h-.308v2.182h.3a1.272,1.272,0,0,0,.55-.086.581.581,0,0,0,.256-.3,1.883,1.883,0,0,0,.093-.693,1.347,1.347,0,0,0-.207-.869A.876.876,0,0,0,1234.876,756.895Z" transform="translate(-1227.605 -755.034)" fill="red"/>
      <path id="Path_2425" data-name="Path 2425" d="M446.608,542.614H433.5a.84.84,0,0,0-.84.84v4.225a.84.84,0,0,0,.84.84h13.106a.84.84,0,0,0,.84-.84v-4.225A.84.84,0,0,0,446.608,542.614Zm-9.243,3.127a1.576,1.576,0,0,1-1.11.341h-.675v1.482h-1.239V543.57h2.051a1.4,1.4,0,0,1,1,.319,1.2,1.2,0,0,1,.334.907A1.231,1.231,0,0,1,437.366,545.741Zm4.554.8a1.643,1.643,0,0,1-.4.591,1.319,1.319,0,0,1-.556.317,2.862,2.862,0,0,1-.735.109h-1.833V543.57h1.833a2.2,2.2,0,0,1,.876.147,1.424,1.424,0,0,1,.552.422,1.749,1.749,0,0,1,.316.64,2.97,2.97,0,0,1,.1.774A2.686,2.686,0,0,1,441.92,546.546Zm3.85-2.118h-1.811v.7h1.547v.806h-1.547v1.631h-1.239V543.57h3.051Z" transform="translate(-432.662 -542.614)" fill="red"/>
    </g>
    <path id="Path_2426" data-name="Path 2426" d="M1843.288,159.731h-2.739a.491.491,0,0,1-.491-.491v-3a.491.491,0,1,1,.983,0v2.507h2.247a.491.491,0,0,1,0,.983Z" transform="translate(-1395.176 -5.431)"/>
  </g>
</svg>
